<svg version="1.0" xmlns="http://www.w3.org/2000/svg" width="512" height="512" viewBox="0 0 512 512">
  <g transform="translate(0,512) scale(0.1,-0.1)" fill="#10B981" stroke="none">
    <path d="M2350 4595 c-19 -8 -53 -29 -75 -47 l-40 -33 -3 -1007 c-1 -554 -1 -1008 0 -1008 1 0 23 18 48 40 l46 40 2 1007 3 1008 -40 33 c-22 18 -56 39 -75 47 -33 14 -33 14 -66 -80z"/>
    <path d="M1280 3840 l0 -640 640 0 640 0 0 640 0 640 -640 0 -640 0 0 -640z m1120 0 l0 -480 -480 0 -480 0 0 480 0 480 480 0 480 0 0 -480z"/>
    <path d="M2240 3520 c0 -177 3 -320 8 -320 4 0 147 143 318 318 l312 317 -318 318 c-175 175 -318 317 -318 317 -2 0 -2 -143 -2 -650z"/>
  </g>
</svg>